{"title":"Dark Skies 2013 BRRip 480p x264 AAC - VYTO [P2PDL]","uid":8452683,"size":324314456,"categoryP":"video","categoryS":"movies","magnet":"?xt=urn:btih:df2a217c77b35b13d51a6be97677249330a79559&amp;dn=Dark+Skies+2013+BRRip+480p+x264+AAC+-+VYTO+%5BP2PDL%5D&amp;tr=udp%3A%2F%2Ftracker.openbittorrent.com%3A80&amp;tr=udp%3A%2F%2Fopen.demonii.com%3A1337&amp;tr=udp%3A%2F%2Ftracker.coppersurfer.tk%3A6969&amp;tr=udp%3A%2F%2Fexodus.desync.com%3A6969","seeders":0,"leechers":0,"uploader":"ValidusVyto","files":-1,"time":1368039064,"description":"_________________________  Visit us at _________________________\n  &lt;a href=&quot;\nhttp://p2pdl.com&quot; rel=&quot;nofollow&quot; target=&quot;_NEW&quot;&gt;\nhttp://p2pdl.com&lt;/a&gt;  ____________________________ &lt;a href=&quot; http://p2pdl.com&quot; rel=&quot;nofollow&quot; target=&quot;_NEW&quot;&gt; http://p2pdl.com&lt;/a&gt;\n\n\nDark Skies 2013 BRRip 480p x264 AAC - VYTO\n\n\nGenre: Horror | Sci-Fi | Thriller\nPlot: As the Barret family's peaceful suburban life is rocked by an escalating series of disturbing\nevents, they come to learn that a terrifying and deadly force is after them.  \nDirector: Scott Stewart\nStars: Keri Russell, Josh Hamilton, Dakota Goyo.\nRated: PG-13 for violence, terror throughout, sexual material, drug content and language - all\ninvolving teens.\n\n\nInfo: &lt;a href=&quot;\nhttp://www.imdb.com/title/tt2387433/&quot; rel=&quot;nofollow&quot; target=&quot;_NEW&quot;&gt;\nhttp://www.imdb.com/title/tt2387433/&lt;/a&gt;\n\nTrailer:\n\n\nFormat                         : MPEG-4\nFile size                      : 302 MiB\nDuration                       : 1h 37mn\nOverall bit rate mode          : Variable\nOverall bit rate               : 435 Kbps\nSource                         : 720p.BluRay.x264-SPARKS(Thanks)\n\nVideo\nFormat                         : AVC\nDuration                       : 1h 37mn\nBit rate                       : 391 Kbps\nWidth                          : 720 pixels\nHeight                         : 304 pixels\nDisplay aspect ratio           : 2.35:1\nFrame rate mode                : Constant\nFrame rate                     : 23.976 fps\nStream size                    : 271 MiB (90%)\nWriting library                : x264 core 130 r2273\n\nAudio\nFormat                         : AAC\nDuration                       : 1h 37mn\nBit rate mode                  : Variable\nBit rate                       : 40.0 Kbps\nChannel(s)                     : 2 channels\nChannel positions              : Front: L R\nSampling rate                  : 44.1 KHz\nStream size                    : 27.8 MiB (9%)\nLanguage                       : English\n\nSubtitle                       : Yes (English)\n &lt;a href=&quot;\nhttp://www.ultraimg.com/images/0Ci6E.png&quot; rel=&quot;nofollow&quot; target=&quot;_NEW&quot;&gt;\nhttp://www.ultraimg.com/images/0Ci6E.png&lt;/a&gt; &lt;a href=&quot;\nhttp://www.ultraimg.com/images/IGkYK.png&quot; rel=&quot;nofollow&quot; target=&quot;_NEW&quot;&gt;\nhttp://www.ultraimg.com/images/IGkYK.png&lt;/a&gt; &lt;a href=&quot;\nhttp://www.ultraimg.com/images/anPsS.png&quot; rel=&quot;nofollow&quot; target=&quot;_NEW&quot;&gt;\nhttp://www.ultraimg.com/images/anPsS.png&lt;/a&gt; &lt;a href=&quot;\nhttp://www.ultraimg.com/images/VQ4ay.png&quot; rel=&quot;nofollow&quot; target=&quot;_NEW&quot;&gt;\nhttp://www.ultraimg.com/images/VQ4ay.png&lt;/a&gt; &lt;a href=&quot;\nhttp://www.ultraimg.com/images/dBi7S.png&quot; rel=&quot;nofollow&quot; target=&quot;_NEW&quot;&gt;\nhttp://www.ultraimg.com/images/dBi7S.png&lt;/a&gt; &lt;a href=&quot;\nhttp://www.ultraimg.com/images/uI1oe.png&quot; rel=&quot;nofollow&quot; target=&quot;_NEW&quot;&gt;\nhttp://www.ultraimg.com/images/uI1oe.png&lt;/a&gt;\n\n\n----------------------------------------------------------------------------------------------------\n\n\nEncoded using revolutionary 10bit encoding, which enables us to provide you more crispier \nand sharper images at small sizes, just make sure you follow our instructions without a fault.\nRecommend to you to use latest version of VLC player. Install K-Lite Codec Pack or shark007 codecs\nin case of any kind of problem in playback (For non-VLC Media Player users). Alternatively, install\nCore AVC codecs, the fastest decoder that there is coupled with Community Center Codec Pack and play\non Windows Media Player Classic. Check sample to be sure.\nEnjoy!\n\nEncoder Notes:Looking For Early Access To Anything You Can Provide DVDScr, R5, DVDR, BluRay, Direct\nAudio, Music Releases and Seedboxes. We require dedicated servers, so as to do more \nand fast releases of movies.\nIf You Got anything to offer please contact us at &quot;&lt;a class=&quot;__cf_email__&quot; href=&quot;/cdn-cgi/l/email-protection&quot; data-cfemail=&quot;ee9e9c89ae869b9d86c08d8183&quot;&gt;[email&amp;#160;protected]&lt;/a&gt;&lt;script data-cfhash='f9e31' type=&quot;text/javascript&quot;&gt;\n/* &lt;![CDATA[ */!function(){try{var t=&quot;currentScript&quot;in document?document.currentScript:function(){for(var t=document.getElementsByTagName(&quot;script&quot;),e=t.length;e--;)if(t[e].getAttribute(&quot;data-cfhash&quot;))return t[e]}();if(t&amp;&amp;t.previousSibling){var e,r,n,i,c=t.previousSibling,a=c.getAttribute(&quot;data-cfemail&quot;);if(a){for(e=&quot;&quot;,r=parseInt(a.substr(0,2),16),n=2;a.length-n;n+=2)i=parseInt(a.substr(n,2),16)^r,e+=String.fromCharCode(i);e=document.createTextNode(e),c.parentNode.replaceChild(e,c)}t.parentNode.removeChild(t);}}catch(u){}}()/* ]]&gt; */&lt;/script&gt;&quot;.\n\nFace book Fan Page:   &lt;a href=&quot;\nhttp://www.fb.me/p2pdl&quot; rel=&quot;nofollow&quot; target=&quot;_NEW&quot;&gt;\nhttp://www.fb.me/p2pdl&lt;/a&gt;","torrent":{"xt":"urn:btih:df2a217c77b35b13d51a6be97677249330a79559","amp;dn":"Dark+Skies+2013+BRRip+480p+x264+AAC+-+VYTO+%5BP2PDL%5D","amp;tr":["udp%3A%2F%2Ftracker.openbittorrent.com%3A80","udp%3A%2F%2Fopen.demonii.com%3A1337","udp%3A%2F%2Ftracker.coppersurfer.tk%3A6969","udp%3A%2F%2Fexodus.desync.com%3A6969"],"infoHash":"df2a217c77b35b13d51a6be97677249330a79559","infoHashBuffer":{"type":"Buffer","data":[223,42,33,124,119,179,91,19,213,26,107,233,118,119,36,147,48,167,149,89]},"announce":[],"urlList":[]}}